Coordinates
version=1
nRows=38
nColumns=12
inDegrees=yes

Units are S.I. units (second, meters, Newtons, ...)
Angles are in degrees

endheader
time	SC_y	SC_z	SC_x	AC_y	AC_z	AC_x	GH_y	GH_z	GH_yy	EL_x	PS_y
       0.0              -32.98          12.76          2.495          45.67         -15.39          6.767         -76.23          47.49          69.29          118.9          80.36
   0.02202              -32.98          12.76          2.505          45.67         -15.39          6.769         -76.21          47.49          69.31          118.9          80.36
   0.04404              -32.98          12.76          2.517          45.67         -15.39           6.77          -76.2          47.48          69.32          118.9          80.36
   0.06606              -32.98          12.77          2.529          45.67         -15.39          6.772         -76.18          47.47          69.34          118.9          80.36
   0.08808              -32.98          12.77          2.542          45.68         -15.39          6.774         -76.17          47.47          69.36          118.9          80.37
    0.1101              -32.98          12.77          2.556          45.68         -15.39          6.776         -76.15          47.46          69.38          118.9          80.37
    0.1321              -32.98          12.77           2.57          45.68         -15.39          6.778         -76.13          47.45           69.4          118.9          80.38
    0.1541              -32.97          12.78          2.586          45.68         -15.39          6.781         -76.11          47.44          69.42          118.9          80.38
    0.1762              -32.97          12.78          2.603          45.68          -15.4          6.783         -76.08          47.43          69.45          118.8          80.38
    0.1982              -32.97          12.78          2.621          45.69          -15.4          6.786         -76.06          47.42          69.47          118.8          80.39
    0.2202              -32.97          12.79          2.641          45.69          -15.4          6.788         -76.03          47.41           69.5          118.8          80.39
    0.2422              -32.97          12.79          2.661          45.69          -15.4          6.792         -76.01           47.4          69.53          118.8           80.4
    0.2642              -32.96          12.79          2.684           45.7          -15.4          6.795         -75.98          47.38          69.57          118.8          80.41
    0.2862              -32.96           12.8          2.708           45.7          -15.4          6.798         -75.94          47.37           69.6          118.7          80.41
    0.3083              -32.96           12.8          2.735          45.71          -15.4          6.802         -75.91          47.36          69.64          118.7          80.42
    0.3303              -32.96          12.81          2.763          45.71          -15.4          6.806         -75.87          47.34          69.68          118.7          80.43
    0.3523              -32.95          12.82          2.794          45.71         -15.41          6.811         -75.83          47.32          69.73          118.7          80.43
    0.3743              -32.95          12.82          2.828          45.72         -15.41          6.816         -75.78           47.3          69.78          118.6          80.44
    0.3963              -32.94          12.83          2.865          45.73         -15.41          6.821         -75.73          47.28          69.83          118.6          80.45
    0.4184              -32.94          12.84          2.905          45.73         -15.41          6.827         -75.68          47.26          69.89          118.6          80.46
    0.4404              -32.94          12.84           2.95          45.74         -15.42          6.834         -75.62          47.23          69.95          118.5          80.48
    0.4624              -32.93          12.85          2.999          45.75         -15.42          6.841         -75.56          47.21          70.03          118.5          80.49
    0.4844              -32.92          12.86          3.053          45.75         -15.42          6.849         -75.48          47.18          70.11          118.4           80.5
    0.5064              -32.92          12.88          3.112          45.76         -15.42          6.857          -75.4          47.14          70.19          118.4          80.52
    0.5285              -32.91          12.89          3.179          45.77         -15.43          6.867         -75.31          47.11          70.29          118.3          80.54
    0.5505               -32.9           12.9          3.253          45.79         -15.43          6.878         -75.22          47.06           70.4          118.2          80.56
    0.5725              -32.89          12.92          3.336           45.8         -15.44           6.89          -75.1          47.02          70.52          118.2          80.58
    0.5945              -32.88          12.93          3.429          45.81         -15.44          6.903         -74.98          46.96          70.66          118.1           80.6
    0.6165              -32.87          12.95          3.535          45.83         -15.45          6.919         -74.84           46.9          70.81          118.0          80.63
    0.6385              -32.86          12.98          3.655          45.85         -15.46          6.936         -74.68          46.84          70.99          117.9          80.66
    0.6606              -32.85           13.0          3.792          45.87         -15.46          6.956          -74.5          46.76          71.18          117.7           80.7
    0.6826              -32.83          13.03          3.949          45.89         -15.47          6.979         -74.29          46.67          71.41          117.6          80.74
    0.7046              -32.81          13.07           4.13          45.92         -15.48          7.006         -74.04          46.57          71.68          117.4          80.79
    0.7266              -32.79          13.11          4.341          45.96          -15.5          7.036         -73.76          46.45          71.99          117.2          80.85
    0.7486              -32.76          13.15          4.587          45.99         -15.51          7.072         -73.43          46.31          72.35          117.0          80.91
    0.7707              -32.73          13.21          4.878          46.04         -15.53          7.115         -73.04          46.14          72.77          116.7          80.99
    0.7927              -32.69          13.27          5.223          46.09         -15.55          7.165         -72.58          45.95          73.28          116.4          81.08
    0.8147              -32.65          13.35          5.637          46.16         -15.57          7.225         -72.03          45.72          73.88          116.0          81.19
